<svg width="770" height="136" viewBox="0 0 770 136" fill="none" xmlns="http://www.w3.org/2000/svg">
<path d="M6.88915 125.706H2.31934L13.3005 92.0117H18.416L29.2608 125.706H23.8725L21.8945 119.021H9.00354L6.88915 125.706ZM16.9154 102.72L15.6195 96.0359L14.0508 102.72L10.0266 115.543H20.6668L16.9154 102.72Z" fill="white"/>
<path d="M40.7878 126.387C38.9463 126.387 37.3093 126.183 36.0134 125.773C34.7175 125.364 33.6944 125.023 32.8759 124.614L33.4898 121.067C34.3764 121.476 35.3995 121.817 36.559 122.158C37.7185 122.5 39.0145 122.704 40.3104 122.704C42.0155 122.704 43.2432 122.431 44.1299 121.749C45.0166 121.135 45.494 120.044 45.494 118.475C45.494 117.725 45.4258 117.043 45.2212 116.702C45.0166 116.225 44.7438 115.815 44.2663 115.474C43.7889 115.133 43.175 114.86 42.4248 114.588C41.6745 114.315 40.6514 114.042 39.3555 113.701C38.4006 113.428 37.5139 113.087 36.6955 112.746C35.877 112.405 35.1949 111.859 34.6493 111.246C34.0354 110.632 33.558 109.881 33.2169 109.063C32.8759 108.176 32.7395 107.153 32.7395 105.857C32.7395 103.129 33.558 101.083 35.1267 99.8551C36.7637 98.5592 38.9463 97.9453 41.6063 97.9453C43.3115 97.9453 44.7438 98.0817 45.9715 98.491C47.2674 98.832 48.2223 99.173 49.0408 99.5823L48.2905 103.061C47.2674 102.72 46.3125 102.447 45.3576 102.174C44.4027 101.969 43.3115 101.833 41.9473 101.833C40.3104 101.833 39.0827 102.106 38.3324 102.652C37.5139 103.197 37.1047 104.22 37.1047 105.721C37.1047 106.403 37.2411 107.085 37.4457 107.426C37.6503 107.903 37.9914 108.244 38.4688 108.517C38.9463 108.858 39.5601 109.063 40.174 109.268C40.9242 109.54 41.8109 109.745 42.7658 110.018C43.9935 110.359 44.9484 110.7 45.9033 111.109C46.79 111.587 47.5402 112.064 48.1541 112.746C48.7679 113.36 49.2454 114.178 49.5864 115.065C49.9274 115.952 50.1321 116.975 50.1321 118.339C50.1321 120.658 49.3818 122.636 47.8131 124.136C46.2443 125.637 43.9253 126.387 40.7878 126.387Z" fill="white"/>
<path d="M62 126.387C60.1584 126.387 58.5215 126.183 57.2256 125.773C55.8614 125.364 54.9065 125.023 54.0881 124.614L54.7019 121.067C55.6568 121.476 56.6117 121.817 57.7712 122.158C58.9307 122.5 60.2266 122.704 61.5225 122.704C63.2277 122.704 64.4554 122.431 65.3421 121.749C66.2288 121.135 66.7062 120.044 66.7062 118.475C66.7062 117.725 66.638 117.043 66.4334 116.702C66.2288 116.225 65.9559 115.815 65.4785 115.474C65.0011 115.133 64.3872 114.86 63.6369 114.588C62.8185 114.315 61.8636 114.042 60.5677 113.701C59.6128 113.428 58.7261 113.087 57.9076 112.746C57.0891 112.405 56.4071 111.859 55.8614 111.246C55.2476 110.632 54.7701 109.881 54.4291 109.063C54.0881 108.176 53.9517 107.153 53.9517 105.857C53.9517 103.129 54.7701 101.083 56.3389 99.8551C57.9758 98.5592 60.1584 97.9453 62.8185 97.9453C64.5236 97.9453 65.9559 98.0817 67.1836 98.491C68.4114 98.832 69.4345 99.173 70.2529 99.5823L69.5027 103.061C68.4796 102.72 67.5247 102.447 66.5698 102.174C65.6149 101.969 64.5236 101.833 63.1595 101.833C61.5225 101.833 60.2948 102.106 59.4764 102.652C58.6579 103.197 58.2486 104.22 58.2486 105.721C58.2486 106.403 58.3851 107.085 58.5897 107.426C58.7943 107.903 59.1353 108.244 59.6128 108.517C60.0902 108.858 60.7041 109.063 61.3179 109.268C62.0682 109.54 62.9549 109.745 63.9098 110.018C65.1375 110.359 66.0924 110.7 67.0472 111.109C67.9339 111.587 68.6842 112.064 69.298 112.746C69.9119 113.36 70.3893 114.178 70.7304 115.065C71.0714 115.952 71.276 116.975 71.276 118.339C71.276 120.658 70.4575 122.636 69.0252 124.136C67.4565 125.637 65.2057 126.387 62 126.387Z" fill="white"/>
<path d="M80.8245 117.792C81.0973 118.951 81.4384 119.838 82.0522 120.52C82.5979 121.202 83.2799 121.748 84.0984 122.089C84.9169 122.43 85.8718 122.566 87.0313 122.566C88.3272 122.566 89.4867 122.43 90.6462 122.021C91.8057 121.68 92.897 121.27 94.1247 120.793L94.9432 124.34C94.1247 124.817 93.0334 125.294 91.5329 125.772C90.0323 126.249 88.4636 126.522 86.6902 126.522C82.9389 126.522 80.1424 125.294 78.1645 122.975C76.3229 120.588 75.2998 117.042 75.2998 112.267C75.2998 107.424 76.3229 103.81 78.2327 101.559C80.2106 99.3079 82.8707 98.1484 86.0764 98.1484C89.4867 98.1484 91.9421 99.3079 93.5108 101.559C95.0796 103.81 95.8299 106.879 95.8299 110.767V113.699H80.2789C80.4153 115.268 80.5517 116.769 80.8245 117.792ZM91.3282 110.289V109.471C91.3282 106.606 90.919 104.492 90.0323 103.4C89.2139 102.173 87.9179 101.695 86.2128 101.695C85.3261 101.695 84.5076 101.832 83.8938 102.104C83.1435 102.377 82.5979 102.855 82.1204 103.537C81.643 104.219 81.2337 105.105 80.9609 106.197C80.6881 107.356 80.4835 108.72 80.4153 110.494L91.3282 110.289Z" fill="white"/>
<path d="M108.584 126.318C106.538 126.318 104.969 125.772 104.014 124.613C103.06 123.453 102.582 121.748 102.582 119.361V102.173H99.3765V98.6945H102.923L105.174 91.3965H107.357V98.6945H113.291V102.173H107.357V120.452C107.357 121.339 107.561 122.021 107.902 122.226C108.243 122.567 108.925 122.771 109.812 122.703H113.7L113.973 125.227C113.291 125.5 112.472 125.772 111.585 125.977C110.767 126.182 109.744 126.25 108.584 126.318Z" fill="white"/>
<path d="M131.706 92.0117H138.595L144.802 114.383L146.302 123.659L147.803 114.383L154.282 92.0117H161.376V125.706H156.26V108.927L157.215 93.9897L154.828 104.834L148.758 125.706H143.369L137.572 105.176L135.389 94.0579L136.276 108.995V125.706H131.842L131.706 92.0117Z" fill="white"/>
<path d="M182.179 106.88C182.179 106.198 182.111 105.516 181.974 104.97C181.838 104.356 181.565 103.879 181.224 103.469C180.883 103.06 180.405 102.719 179.86 102.446C179.314 102.173 178.564 102.105 177.745 102.105C176.449 102.105 175.222 102.31 173.858 102.651C172.493 102.992 171.129 103.401 169.629 103.947L168.879 100.264C170.106 99.718 171.402 99.2406 172.971 98.7631C174.471 98.2857 176.177 98.0811 178.086 98.0811C181.224 98.0811 183.406 98.8995 184.839 100.536C186.271 102.173 186.885 104.902 186.885 108.585V121.339C186.885 122.021 187.021 122.567 187.294 122.84C187.567 123.113 187.976 123.249 188.59 123.181H189.681L189.818 125.5C189.545 125.705 189.136 125.909 188.59 126.114C188.044 126.318 187.431 126.387 186.749 126.387C186.339 126.387 185.862 126.387 185.453 126.318C185.043 126.25 184.634 126.182 184.225 125.977L182.315 122.976L180.064 125.568C179.519 125.841 178.905 126.046 178.155 126.182C177.336 126.318 176.518 126.455 175.563 126.455C174.608 126.455 173.585 126.318 172.63 126.046C171.675 125.773 170.857 125.295 170.174 124.681C169.424 124.068 168.879 123.249 168.469 122.294C168.06 121.271 167.855 120.112 167.855 118.611C167.855 117.179 168.06 116.087 168.469 115.064C168.879 114.041 169.424 113.291 170.174 112.609C170.993 111.927 171.948 111.449 173.244 111.04C174.54 110.631 175.972 110.358 177.745 110.154L182.247 109.608L182.179 106.88ZM182.179 112.609L178.018 113.155C176.108 113.359 174.608 113.837 173.721 114.587C172.834 115.337 172.425 116.497 172.425 118.338V118.748C172.425 120.316 172.835 121.339 173.585 122.09C174.335 122.772 175.495 123.181 177.063 123.181C178.427 123.181 179.382 122.976 180.201 122.499C181.019 122.021 181.701 121.476 182.111 120.93L182.179 112.609Z" fill="white"/>
<path d="M202.231 99.103C202.845 98.8302 203.527 98.5574 204.278 98.3527C205.096 98.1481 205.983 98.0117 207.142 98.0117C209.393 98.0117 211.235 98.6938 212.53 99.9897C213.826 101.422 214.44 103.536 214.44 106.537V125.635H209.666V105.992C209.666 104.423 209.257 103.4 208.574 102.786C207.824 102.172 206.869 101.899 205.71 101.899C204.55 101.899 203.459 102.104 202.641 102.445C201.754 102.786 200.867 103.332 199.844 103.946V125.703H195.001V98.5574H197.934L199.639 102.036L202.231 99.103Z" fill="white"/>
<path d="M234.561 106.88C234.561 106.198 234.493 105.516 234.356 104.97C234.22 104.356 233.947 103.879 233.674 103.469C233.333 103.06 232.856 102.719 232.31 102.446C231.765 102.173 231.014 102.105 230.196 102.105C228.9 102.105 227.672 102.31 226.376 102.651C225.012 102.992 223.648 103.401 222.148 103.947L221.397 100.264C222.625 99.718 223.921 99.2406 225.49 98.7631C226.99 98.2857 228.627 98.0811 230.605 98.0811C233.743 98.0811 235.993 98.8995 237.358 100.536C238.79 102.173 239.404 104.902 239.404 108.585V121.339C239.404 122.021 239.54 122.567 239.813 122.84C240.086 123.113 240.495 123.249 241.109 123.181H242.2L242.337 125.5C242.064 125.705 241.655 125.909 241.109 126.114C240.631 126.318 239.949 126.387 239.267 126.387C238.858 126.387 238.381 126.387 237.971 126.318C237.562 126.25 237.153 126.182 236.744 125.977L234.834 122.976L232.583 125.568C232.037 125.841 231.424 126.046 230.673 126.182C229.923 126.318 229.036 126.455 228.082 126.455C227.127 126.455 226.104 126.318 225.08 126.046C224.126 125.773 223.307 125.295 222.625 124.681C221.875 124.068 221.329 123.249 220.92 122.294C220.511 121.271 220.306 120.112 220.306 118.611C220.306 117.179 220.511 116.087 220.92 115.064C221.329 114.041 221.875 113.291 222.625 112.609C223.444 111.927 224.398 111.449 225.694 111.04C226.99 110.631 228.423 110.358 230.196 110.154L234.698 109.608L234.561 106.88ZM234.561 112.609L230.401 113.155C228.491 113.359 226.99 113.837 226.104 114.587C225.217 115.337 224.808 116.497 224.808 118.338V118.748C224.808 120.316 225.217 121.339 225.967 122.09C226.717 122.772 227.809 123.181 229.446 123.181C230.81 123.181 231.765 122.976 232.583 122.499C233.402 122.021 234.015 121.476 234.493 120.93L234.561 112.609Z" fill="white"/>
<path d="M268.392 97.4658V101.967H262.253L265.663 104.082C265.732 104.491 265.868 104.832 266.004 105.241C266.073 105.651 266.141 106.128 266.141 106.742C266.141 108.447 265.868 109.811 265.254 110.971C264.708 112.13 263.958 113.017 263.072 113.699C262.117 114.449 261.162 114.927 259.934 115.199C258.706 115.472 257.479 115.677 256.183 115.677C254.409 115.677 252.841 115.404 251.613 114.858C251.204 115.131 250.863 115.472 250.658 115.881C250.385 116.291 250.249 116.768 250.249 117.314C250.249 119.019 251.408 119.906 253.659 119.906H259.593C262.253 119.906 264.367 120.451 265.732 121.611C267.164 122.77 267.778 124.339 267.778 126.726C267.778 128.227 267.437 129.454 266.823 130.546C266.209 131.637 265.322 132.456 264.299 133.206C263.208 133.888 261.98 134.434 260.48 134.775C258.979 135.116 257.41 135.252 255.705 135.32C252.295 135.32 249.771 134.706 247.998 133.615C246.293 132.387 245.406 130.819 245.406 128.704C245.406 127.681 245.543 126.931 245.884 126.385C246.225 125.771 246.497 125.362 246.77 125.021L249.771 123.521C248.816 123.248 248.066 122.702 247.384 122.02C246.702 121.27 246.361 120.315 246.361 118.951C246.361 118.064 246.497 117.314 246.77 116.836C247.043 116.291 247.248 115.881 247.521 115.54L250.453 113.972L247.316 112.062C246.975 111.38 246.634 110.63 246.429 109.879C246.225 109.061 246.088 108.174 246.088 107.151C246.088 105.446 246.361 104.15 246.975 102.991C247.589 101.831 248.339 101.013 249.294 100.262C250.249 99.5802 251.34 99.0346 252.568 98.7617C253.795 98.4889 254.887 98.3525 256.114 98.3525C258.434 98.3525 260.548 98.8982 262.185 99.9895L268.392 97.4658ZM250.112 125.362C249.771 126.044 249.567 126.794 249.567 127.681C249.567 129.045 250.112 129.932 251.135 130.546C252.159 131.16 253.727 131.501 255.842 131.501C258.365 131.501 260.275 131.023 261.503 130.137C262.799 129.25 263.344 128.227 263.344 126.999V126.658C263.344 125.771 263.072 125.021 262.526 124.544C261.98 123.93 260.957 123.657 259.457 123.657H251.545C250.931 124.203 250.522 124.748 250.112 125.362ZM256.114 112.403C257.82 112.403 259.184 111.994 260.002 111.175C260.821 110.357 261.23 109.061 261.23 107.219V106.537C261.23 104.832 260.821 103.673 260.002 102.854C259.116 102.036 257.888 101.558 256.114 101.558C254.341 101.558 252.977 101.967 252.09 102.854C251.272 103.673 250.794 104.9 250.794 106.537V107.219C250.794 109.061 251.272 110.425 252.09 111.243C252.977 111.926 254.341 112.403 256.114 112.403Z" fill="white"/>
<path d="M276.781 117.792C277.054 118.951 277.395 119.838 278.008 120.52C278.554 121.202 279.236 121.748 280.055 122.089C280.941 122.43 281.828 122.566 282.987 122.566C284.283 122.566 285.443 122.43 286.671 122.021C287.83 121.68 288.921 121.27 290.149 120.793L290.968 124.34C290.149 124.817 289.058 125.294 287.557 125.772C286.057 126.249 284.488 126.522 282.715 126.522C278.963 126.522 276.167 125.294 274.189 122.975C272.279 120.588 271.324 117.042 271.324 112.267C271.324 107.424 272.347 103.81 274.257 101.559C276.167 99.3079 278.895 98.1484 282.101 98.1484C285.511 98.1484 287.898 99.3079 289.535 101.559C291.104 103.81 291.854 106.879 291.854 110.767V113.699H276.303C276.371 115.268 276.508 116.769 276.781 117.792ZM287.284 110.289V109.471C287.284 106.606 286.875 104.492 285.989 103.4C285.17 102.173 283.942 101.695 282.169 101.695C281.282 101.695 280.464 101.832 279.85 102.104C279.1 102.377 278.554 102.855 278.077 103.537C277.599 104.219 277.19 105.105 276.917 106.197C276.576 107.356 276.44 108.72 276.371 110.494L287.284 110.289Z" fill="white"/>
<path d="M319.41 99.103C319.955 98.8302 320.705 98.5574 321.387 98.3527C322.206 98.1481 323.093 98.0117 324.116 98.0117C326.435 98.0117 328.208 98.6938 329.436 99.9897C330.732 101.422 331.277 103.536 331.277 106.537V125.635H326.435V105.992C326.435 104.423 326.094 103.4 325.412 102.786C324.73 102.172 323.775 101.899 322.615 101.899C321.388 101.899 320.433 102.104 319.614 102.445C318.796 102.854 317.909 103.332 317.091 103.946V125.703H312.248V106.06C312.248 104.491 311.907 103.468 311.157 102.854C310.406 102.24 309.52 101.968 308.36 101.968C307.201 101.968 306.314 102.172 305.427 102.513C304.541 102.854 303.722 103.332 302.835 103.946V125.772H297.993V98.6256H300.926L302.631 101.968L305.086 99.1712C305.632 98.8984 306.314 98.6256 307.064 98.4209C307.883 98.2163 308.769 98.0799 309.792 98.0799C310.816 98.0799 311.634 98.1481 312.384 98.3527C313.203 98.5574 313.885 98.8302 314.43 99.1712L316.34 102.172L319.41 99.103Z" fill="white"/>
<path d="M342.6 117.792C342.872 118.951 343.282 119.838 343.827 120.52C344.373 121.202 345.055 121.748 345.874 122.089C346.76 122.43 347.647 122.566 348.806 122.566C350.102 122.566 351.262 122.43 352.421 122.021C353.581 121.68 354.74 121.27 355.9 120.793L356.718 124.34C355.9 124.817 354.809 125.294 353.308 125.772C351.807 126.249 350.239 126.522 348.465 126.522C344.714 126.522 341.918 125.294 339.94 122.975C338.098 120.588 337.075 117.042 337.075 112.267C337.075 107.424 338.098 103.81 340.008 101.559C341.918 99.3079 344.646 98.1484 347.852 98.1484C351.262 98.1484 353.649 99.3079 355.286 101.559C356.855 103.81 357.605 106.879 357.605 110.767V113.699H342.054C342.19 115.268 342.327 116.769 342.6 117.792ZM353.103 110.289V109.471C353.103 106.606 352.694 104.492 351.807 103.4C350.989 102.173 349.761 101.695 347.988 101.695C347.101 101.695 346.283 101.832 345.669 102.104C344.919 102.377 344.305 102.855 343.896 103.537C343.486 104.219 343.009 105.105 342.668 106.197C342.395 107.356 342.19 108.72 342.122 110.494L353.103 110.289Z" fill="white"/>
<path d="M371.178 99.103C371.792 98.8302 372.474 98.5574 373.224 98.3527C374.043 98.1481 374.929 98.0117 376.021 98.0117C378.271 98.0117 380.113 98.6938 381.409 99.9897C382.705 101.422 383.319 103.536 383.319 106.537V125.635H378.476V105.992C378.476 104.423 378.067 103.4 377.385 102.786C376.634 102.172 375.68 101.899 374.52 101.899C373.292 101.899 372.269 102.104 371.383 102.445C370.496 102.786 369.609 103.332 368.586 103.946V125.703H363.744V98.5574H366.676L368.382 102.036L371.178 99.103Z" fill="white"/>
<path d="M397.096 126.318C395.05 126.318 393.481 125.772 392.526 124.613C391.572 123.453 391.094 121.748 391.094 119.361V102.173H387.888V98.6945H391.435L393.686 91.3965H395.869V98.6945H401.802V102.173H395.869V120.452C395.869 121.339 396.073 122.021 396.414 122.226C396.755 122.567 397.437 122.771 398.324 122.703H402.212L402.485 125.227C401.802 125.5 400.916 125.772 400.097 125.977C399.279 126.182 398.256 126.25 397.096 126.318Z" fill="white"/>
<path d="M41.6057 0H17.3926V2.04618H25.0999V42.2196C25.0999 54.2921 21.7578 57.7024 14.2551 57.7024C9.54886 57.7024 8.79859 54.1557 8.79859 52.3141C8.79859 47.8807 8.52577 45.2207 4.5016 45.2207C0.477443 45.2207 0 49.313 0 50.4725C0 55.9972 4.29699 60.226 15.2782 60.226C28.3737 60.226 33.5574 55.7926 33.5574 41.1283V2.04618H41.5375L41.6057 0Z" fill="white"/>
<path d="M43.2424 51.0166C41.8783 51.0166 40.787 51.4258 39.9003 52.3807C38.9455 53.3356 38.468 54.3587 38.468 55.791C38.468 57.1552 38.9455 58.2465 39.9003 59.0649C40.8552 60.0198 41.9465 60.4973 43.3107 60.4291C44.6748 60.4291 45.7661 59.9516 46.721 59.0649C47.6758 58.1783 48.1533 57.1552 48.1533 55.791C48.1533 54.4269 47.6758 53.3356 46.721 52.4489C45.7661 51.4258 44.6066 51.0166 43.2424 51.0166Z" fill="white"/>
<path d="M95.1475 51.0166C93.7834 51.0166 92.692 51.4258 91.8054 52.3807C90.8505 53.3356 90.373 54.3587 90.373 55.791C90.373 57.1552 90.8505 58.2465 91.8054 59.0649C92.8285 60.0198 93.8516 60.4973 95.2157 60.4291C96.5798 60.4291 97.6711 59.9516 98.626 59.0649C99.5809 58.1783 100.058 57.1552 100.058 55.791C100.058 54.4269 99.5809 53.3356 98.626 52.4489C97.6711 51.4258 96.5116 51.0166 95.1475 51.0166Z" fill="white"/>
<path d="M80.074 0H56.4065V2.04618H63.3635V47.8807C63.3635 51.4956 63.1589 51.7002 62.7496 52.7233C62.2722 53.8828 61.3173 54.7695 59.885 55.3834C58.7937 55.8608 57.2249 56.0654 54.9741 56.1336V58.7937H80.5514V56.1336C78.437 56.0654 76.7319 55.8608 75.6406 55.4516C74.0718 54.8377 73.1169 53.951 72.6395 52.7915C72.2303 51.7684 71.9574 50.8818 71.9574 49.0402V34.1031H78.3006C96.6481 34.1031 101.764 26.8732 101.764 16.9833C101.832 7.02523 98.6942 0.0682061 80.074 0ZM76.8683 31.8523H72.0257V2.38721L76.459 2.319C90.6459 2.319 93.647 8.11653 93.647 17.5972C93.647 27.0096 88.1223 31.8523 76.8683 31.8523Z" fill="white"/>
<path d="M174.88 52.5869C174.539 51.4956 174.403 50.2679 174.403 48.5628V2.11439H180.541V0H165.536C165.331 0.545649 147.461 44.9478 147.461 44.9478C147.393 45.0842 147.189 45.2206 147.052 45.2206C146.848 45.2206 146.711 45.1524 146.643 44.9478C146.643 44.9478 127.682 0.545649 127.477 0H110.835V2.04618H117.723V46.7894L117.587 50.95C117.451 52.0413 117.11 52.9962 116.564 53.8146C116.018 54.7013 115.063 55.3152 113.904 55.6562C113.085 55.929 111.994 56.1336 110.494 56.1336V58.7937H127.272V56.1336C125.84 56.0654 125.294 55.929 124.408 55.6562C123.18 55.247 122.293 54.6331 121.679 53.8146C121.134 52.9962 120.793 52.1095 120.656 50.95L120.452 46.7894V8.25294H121.475C121.475 8.25294 142.892 58.248 143.164 58.7937H144.938L165.195 8.79859H165.741V48.5628C165.741 50.2679 165.536 51.632 165.195 52.7233C164.786 53.951 163.899 54.8377 162.671 55.4516C161.716 55.8608 160.352 56.1336 158.443 56.2018V58.8619H181.564V56.2018C179.723 56.1336 178.291 55.8608 177.267 55.3834C176.04 54.7695 175.221 53.8146 174.88 52.5869Z" fill="white"/>
<path d="M205.983 15.7549C193.637 15.7549 185.93 23.9396 185.93 38.1947C185.93 59.134 202.163 60.5663 205.71 60.5663C212.667 60.5663 225.899 56.2011 225.899 37.8537C225.83 23.5304 217.373 15.7549 205.983 15.7549ZM205.778 57.9745C196.502 57.9745 195.07 53.3364 195.07 38.4675C195.07 26.9407 195.82 18.3467 205.778 18.3467C216.554 18.3467 216.691 27.2135 216.691 37.6491C216.623 52.7226 214.099 57.9745 205.778 57.9745Z" fill="white"/>
<path d="M258.092 16.3691C250.726 16.3691 248.134 20.7343 246.088 25.1677C246.088 25.1677 245.542 25.0995 245.474 25.1677C245.406 25.1677 243.973 16.7102 243.973 16.7102H230.127V18.8928H237.835C237.835 18.8928 237.835 25.4405 237.835 27.8278V47.8122C237.835 50.6768 237.698 52.9958 236.948 54.1553C236.061 55.5877 234.356 56.0651 231.423 56.0651H230.127V58.7251H254.068V56.0651H252.772C249.634 56.0651 247.997 55.3831 247.179 54.0189C246.429 52.7912 246.088 50.8132 246.088 47.8122V32.8068C246.088 27.6914 250.18 21.8938 254.75 21.8938C259.592 21.8938 259.729 28.7827 264.844 26.3272C268.527 24.6903 267.709 16.3691 258.092 16.3691Z" fill="white"/>
<path d="M353.58 54.5642C351.057 54.5642 350.238 53.1318 350.034 50.7446C350.034 50.7446 349.897 45.4245 349.897 45.3563V27.7592C349.897 23.9396 349.283 21.416 347.033 19.1652C344.85 16.9144 340.553 15.7549 334.415 15.7549C328.481 15.7549 324.115 16.8462 321.319 19.0288C318.591 21.075 317.499 23.0529 317.499 25.7812C317.499 27.0771 317.84 27.9638 318.591 28.5776C319.341 29.1915 320.159 29.5325 321.183 29.5325C323.57 29.5325 324.934 28.3048 325.411 25.1673C325.752 22.8483 326.298 21.4842 327.389 20.2565C328.617 18.9606 330.527 18.3467 333.05 18.3467C336.051 18.3467 338.234 19.1652 339.394 20.7339C340.485 22.3027 341.099 24.3488 341.099 26.8725V33.8977C333.391 34.5798 315.317 36.0121 316.067 49.8579C316.34 55.2462 321.114 59.9524 327.253 60.0207C334.074 60.0207 338.37 56.1329 341.303 53.0636C341.781 55.9965 344.509 59.5432 349.488 59.5432C355.013 59.5432 358.355 56.815 358.764 49.9943H357.332C356.923 52.9272 355.013 54.496 353.58 54.5642ZM340.962 50.1308C340.962 50.2672 340.962 50.4036 340.826 50.4718L340.621 50.6764C336.529 54.4277 333.391 55.7919 331.072 55.7919C325.207 55.7919 324.32 50.881 324.32 48.4256C324.32 40.5819 335.028 36.626 340.894 36.626L340.962 50.1308Z" fill="white"/>
<path d="M402.484 54.2914C403.507 55.6556 405.008 55.9966 407.6 56.2012V58.8612H387.684V56.2694C389.184 56.133 390.275 55.8602 391.026 55.3145C392.049 54.6325 392.322 53.6094 392.594 52.3817C392.799 51.2904 392.799 49.6534 392.799 47.3344V33.5568C392.799 30.2147 392.594 25.9859 391.435 23.7351C390.412 21.7571 388.775 20.734 385.637 20.734C382.091 20.734 379.021 22.4392 377.248 25.4402C375.611 28.2367 375.679 32.7383 375.679 37.3763V48.4939C375.679 51.2904 376.089 53.3365 376.907 54.4278C377.657 55.5191 379.021 56.0648 381.136 56.2012V58.8612H360.401V56.2012C362.038 56.133 363.198 55.9284 364.016 55.5873C365.244 55.0417 366.062 54.155 366.403 52.9273C366.744 51.836 366.949 50.2673 366.949 47.9483V18.8925H360.401V16.7099H373.428L374.929 24.349H375.611C377.316 21.0751 380.931 16.2324 389.321 16.2324C391.64 16.2324 393.822 16.7099 395.664 17.6647C397.437 18.6196 398.938 20.052 400.029 21.9617C401.12 23.8715 401.461 26.2587 401.461 28.987C401.461 28.987 401.461 45.9021 401.461 48.0165C401.257 50.1309 401.529 52.9273 402.484 54.2914Z" fill="white"/>
<path d="M308.974 14.0504C307.746 14.4597 306.927 15.5509 306.518 17.3925C306.177 19.0977 305.495 20.0526 304.677 20.3254C303.79 20.5982 302.358 20.5982 301.676 20.1208C299.561 18.1428 295.401 15.6874 288.171 15.6874C276.508 15.6874 271.392 24.0085 271.392 31.5794C271.392 40.4462 274.802 44.7432 282.373 46.3801C282.851 46.4483 282.851 46.994 282.442 47.0622C276.03 48.3581 270.437 50.1997 270.437 56.27C270.437 59.9531 272.483 61.9311 275.212 63.0224C278.213 64.2501 282.373 64.7958 287.557 64.9322C292.127 65.0004 295.401 65.1368 297.447 65.4096C299.698 65.6824 301.539 66.3645 302.835 67.2512C304.267 68.3425 304.95 69.843 304.95 71.9574C304.95 74.7539 303.449 77.0729 300.448 78.7098C297.651 80.2786 293.832 81.0288 289.057 81.0288C284.965 81.0288 281.623 80.5514 278.622 78.778C276.439 77.3457 275.962 74.6857 276.439 72.7759C276.849 70.7979 276.167 68.6835 273.848 68.3425C272.552 68.1379 271.051 68.8199 270.233 69.9794C269.551 71.0707 269.278 72.2985 269.278 73.799C269.278 78.8462 273.165 81.1652 276.03 82.0519C280.532 83.4842 283.533 83.7571 287.693 83.7571C293.15 83.7571 297.651 82.8704 300.789 81.3017C303.995 79.6647 306.177 77.7549 307.405 75.5041C308.701 73.2533 309.247 70.8661 309.247 68.6835C309.247 65.6825 308.564 63.227 307.337 61.3855C303.176 55.7244 297.242 56.3382 283.942 55.7926C277.531 55.7926 276.303 54.6331 276.303 52.6551C276.303 49.7904 278.622 48.6309 287.966 47.2668C297.038 45.8345 305.563 42.4924 305.563 31.3748C305.563 28.1691 304.813 25.4408 303.858 23.4629C305.7 23.9403 307.473 23.9403 309.042 23.3265C310.883 22.7126 312.043 21.8259 312.793 20.53C313.475 19.2341 313.748 17.7335 313.475 16.5058C313.066 13.8458 311.224 13.3684 308.974 14.0504ZM288.375 44.7432C282.987 44.7432 279.781 42.7652 279.781 31.7158C279.781 23.8721 282.51 18.0746 288.375 18.0746C295.196 18.0746 297.174 23.3265 297.174 31.5112C297.106 43.1062 293.423 44.7432 288.375 44.7432Z" fill="white"/>
<line x1="469" y1="3" x2="469" y2="130" stroke="white" stroke-width="2"/>
<path d="M735.957 80.2609C729.714 80.2609 724.453 75.1114 724.453 68.7562C724.453 62.401 729.711 57.2548 735.957 57.2548C742.204 57.2548 747.462 62.401 747.462 68.7562C747.462 75.1114 742.422 80.2609 735.957 80.2609V80.2609ZM741.777 34.2949C735.482 34.2949 730.699 37.1917 726.92 41.4726C726.418 42.1002 725.913 41.7236 725.913 40.7162V35.6789C725.913 35.0513 725.536 34.6715 724.905 34.6715H702.619C701.992 34.6715 701.612 35.0513 701.612 35.6789V126.088C701.612 126.716 701.992 127.096 702.619 127.096H724.78C725.536 127.096 725.913 126.716 725.913 126.088V94.8606C725.913 93.9787 726.544 93.7277 727.174 94.4808C731.079 98.6361 735.611 101.407 741.781 101.407C760.291 101.407 769.86 84.5318 769.86 67.7884C769.86 51.045 760.291 34.2949 741.781 34.2949" fill="white"/>
<path d="M668.914 16.5014C668.914 10.1462 674.173 5 680.419 5C686.665 5 691.924 10.1462 691.924 16.5014C691.924 22.8566 686.887 28.0061 680.419 28.0061C673.952 28.0061 668.914 22.8566 668.914 16.5014" fill="white"/>
<path d="M570.082 40.1129C564.668 40.1129 563.033 40.2384 559.004 42.5044C557.871 43.0097 557.742 43.2608 557.871 42.1278L558.627 35.2045C558.753 34.3226 559.258 33.9427 560.011 33.9427H587.334C588.091 33.9427 588.467 33.4407 588.593 32.6842L591.741 12.6641C591.866 11.9077 591.239 11.4023 590.479 11.4023H540.116C539.36 11.4023 538.858 11.7822 538.732 12.6641L532.301 62.4716C532.232 63.0034 532.575 63.5055 533.097 63.6343L551.327 68.1397C551.657 62.0752 556.774 57.256 562.812 57.256C569.276 57.256 574.317 62.4023 574.317 68.7574C574.317 75.1126 569.276 80.2621 562.812 80.2621C558.105 80.2621 553.956 77.3323 552.202 73.1704L532.182 75.7468C531.555 75.8723 530.798 76.2489 531.049 77.1308C536.087 94.8817 549.56 101.557 563.912 101.557C584.94 101.557 596.398 85.818 596.398 69.4478C596.398 53.0776 584.437 40.1096 570.082 40.1096" fill="white"/>
<path d="M636.93 40.1129C631.517 40.1129 629.882 40.2384 625.852 42.5044C624.719 43.0097 624.59 43.2608 624.719 42.1278L625.475 35.2045C625.601 34.3226 626.106 33.9427 626.859 33.9427H654.183C654.939 33.9427 655.315 33.4407 655.441 32.6842L658.589 12.6641C658.714 11.9077 658.087 11.4023 657.327 11.4023H606.961C606.205 11.4023 605.703 11.7822 605.577 12.6641L599.15 62.4716C599.08 63.0034 599.424 63.5055 599.946 63.6343L618.175 68.1397C618.506 62.0752 623.622 57.256 629.66 57.256C636.124 57.256 641.165 62.4023 641.165 68.7574C641.165 75.1126 636.124 80.2621 629.66 80.2621C624.953 80.2621 620.805 77.3323 619.051 73.1704L599.031 75.7468C598.403 75.8723 597.647 76.2489 597.898 77.1308C602.935 94.8817 616.408 101.557 630.76 101.557C651.788 101.557 663.246 85.818 663.246 69.4478C663.246 53.0776 651.286 40.1096 636.93 40.1096" fill="white"/>
<path d="M691.151 34.9023C689.001 38.1196 685.344 40.2336 681.093 40.2336C676.842 40.2336 673.288 38.1196 671.088 34.9023H668.98C668.957 51.3551 668.944 100.023 668.944 100.023C668.944 100.651 669.324 101.03 669.952 101.03H692.238C692.865 101.03 693.245 100.651 693.245 100.023C693.245 100.023 693.229 51.3881 693.202 34.9023H691.151Z" fill="white"/>
</svg>
